<?xml version="1.0" encoding="UTF-8"?>
<svg xmlns="http://www.w3.org/2000/svg" xmlns:xlink="http://www.w3.org/1999/xlink" width="375pt" height="374.999991pt" viewBox="0 0 375 374.999991" version="1.2">
<defs>
<clipPath id="clip1">
  <path d="M 96 14.753906 L 337.214844 14.753906 L 337.214844 186 L 96 186 Z M 96 14.753906 "/>
</clipPath>
<clipPath id="clip2">
  <path d="M 33.464844 72 L 274 72 L 274 244 L 33.464844 244 Z M 33.464844 72 "/>
</clipPath>
<clipPath id="clip3">
  <path d="M 96 131 L 337.214844 131 L 337.214844 303 L 96 303 Z M 96 131 "/>
</clipPath>
<clipPath id="clip4">
  <path d="M 33.617188 189.757812 L 273.84375 189.757812 L 273.84375 360.503906 L 33.617188 360.503906 Z M 33.617188 189.757812 "/>
</clipPath>
</defs>
<g id="surface1">
<g clip-path="url(#clip1)" clip-rule="nonzero">
<path style=" stroke:none;fill-rule:nonzero;fill:rgb(34.509277%,49.01886%,62.348938%);fill-opacity:1;" d="M 251.777344 131.613281 C 243.613281 131.613281 240.859375 130.464844 215.339844 115.496094 C 208.210938 111.347656 199.480469 106.285156 188.671875 100.066406 C 199.480469 93.964844 208.097656 88.898438 215.226562 84.753906 C 241.085938 69.789062 243.84375 68.519531 251.777344 68.519531 C 269.132812 68.519531 283.15625 82.683594 283.269531 100.183594 C 283.15625 117.570312 269.019531 131.613281 251.777344 131.613281 Z M 337.0625 100.183594 C 337.0625 100.183594 337.0625 99.953125 337.0625 99.835938 C 336.949219 52.859375 298.675781 14.753906 251.777344 14.753906 C 228.097656 14.753906 215.917969 21.773438 180.050781 42.730469 C 163.042969 52.628906 139.707031 66.21875 106.03125 84.523438 C 100.398438 87.632812 96.835938 93.503906 96.835938 100.066406 C 96.835938 106.515625 100.398438 112.5 106.03125 115.609375 C 140.167969 134.148438 163.730469 147.847656 180.859375 157.867188 C 217.40625 179.167969 228.441406 185.5 251.890625 185.5 C 298.789062 185.5 337.0625 147.15625 337.0625 100.183594 "/>
</g>
<g clip-path="url(#clip2)" clip-rule="nonzero">
<path style=" stroke:none;fill-rule:nonzero;fill:rgb(83.918762%,87.838745%,92.939758%);fill-opacity:1;" d="M 118.902344 126.890625 C 127.066406 126.890625 129.820312 128.042969 155.453125 143.011719 C 162.582031 147.15625 171.316406 152.222656 182.121094 158.324219 C 171.316406 164.429688 162.695312 169.378906 155.570312 173.640625 C 129.710938 188.605469 126.949219 189.871094 119.019531 189.871094 C 101.660156 189.871094 87.636719 175.710938 87.636719 158.207031 C 87.523438 140.9375 101.660156 126.890625 118.902344 126.890625 Z M 190.628906 215.777344 C 207.636719 205.875 230.972656 192.289062 264.648438 173.867188 C 270.28125 170.761719 273.84375 164.886719 273.84375 158.324219 C 273.84375 151.875 270.28125 145.890625 264.648438 142.78125 C 230.511719 124.242188 207.0625 110.542969 189.9375 100.527344 C 153.386719 79.226562 142.351562 72.894531 118.902344 72.894531 C 71.890625 72.894531 33.617188 111.238281 33.617188 158.207031 L 33.617188 158.441406 C 33.730469 205.414062 72.003906 243.523438 118.902344 243.523438 C 142.582031 243.753906 154.652344 236.734375 190.628906 215.777344 "/>
</g>
<g clip-path="url(#clip3)" clip-rule="nonzero">
<path style=" stroke:none;fill-rule:nonzero;fill:rgb(18.818665%,21.569824%,24.708557%);fill-opacity:1;" d="M 251.777344 248.242188 C 243.613281 248.242188 240.859375 247.089844 215.339844 232.128906 C 208.210938 227.980469 199.480469 222.917969 188.671875 216.699219 C 199.480469 210.59375 208.097656 205.53125 215.226562 201.382812 C 241.085938 186.417969 243.84375 185.152344 251.777344 185.152344 C 269.132812 185.152344 283.15625 199.316406 283.269531 216.8125 C 283.15625 234.3125 269.019531 248.242188 251.777344 248.242188 Z M 337.0625 216.8125 C 337.0625 216.8125 337.0625 216.585938 337.0625 216.46875 C 336.949219 169.492188 298.675781 131.386719 251.777344 131.386719 C 228.097656 131.386719 215.917969 138.40625 180.050781 159.359375 C 163.042969 169.261719 139.707031 182.851562 106.03125 201.152344 C 100.398438 204.261719 96.835938 210.136719 96.835938 216.699219 C 96.835938 223.148438 100.398438 229.132812 106.03125 232.242188 C 140.167969 250.777344 163.730469 264.476562 180.859375 274.496094 C 217.40625 295.792969 228.441406 302.125 251.890625 302.125 C 298.789062 302.242188 337.0625 263.902344 337.0625 216.8125 "/>
</g>
<g clip-path="url(#clip4)" clip-rule="nonzero">
<path style=" stroke:none;fill-rule:nonzero;fill:rgb(34.509277%,49.01886%,62.348938%);fill-opacity:1;" d="M 118.902344 243.753906 C 127.066406 243.753906 129.820312 244.90625 155.453125 259.875 C 162.582031 264.019531 171.316406 269.082031 182.121094 275.1875 C 171.429688 281.289062 162.695312 286.238281 155.570312 290.382812 C 129.710938 305.351562 126.949219 306.621094 119.019531 306.621094 C 101.660156 306.621094 87.636719 292.457031 87.636719 274.957031 C 87.523438 257.800781 101.660156 243.753906 118.902344 243.753906 Z M 190.628906 332.636719 C 207.636719 322.738281 230.972656 309.152344 264.648438 290.730469 C 270.28125 287.621094 273.84375 281.75 273.84375 275.1875 C 273.84375 268.738281 270.28125 262.75 264.648438 259.644531 C 230.511719 240.992188 206.949219 227.40625 189.820312 217.390625 C 153.273438 196.089844 142.238281 189.757812 118.789062 189.757812 C 71.890625 189.871094 33.617188 228.210938 33.617188 275.1875 L 33.617188 275.417969 C 33.730469 322.390625 72.003906 360.5 118.902344 360.5 C 142.582031 360.617188 154.652344 353.59375 190.628906 332.636719 "/>
</g>
</g>
</svg>
